<svg width="15" height="15" viewBox="0 0 15 15" fill="none" xmlns="http://www.w3.org/2000/svg">
<path d="M7.01033 1.06045C7.13275 0.391977 8.09093 0.391978 8.21334 1.06045C8.44417 2.32094 9.98265 2.82082 10.9103 1.93674C11.4022 1.46789 12.1774 2.03109 11.8835 2.64385C11.3294 3.79928 12.2802 5.10799 13.5503 4.93801C14.2239 4.84786 14.52 5.75914 13.9221 6.08214C12.7946 6.69118 12.7946 8.30882 13.9221 8.91786C14.52 9.24086 14.2239 10.1521 13.5503 10.062C12.2802 9.89201 11.3294 11.2007 11.8835 12.3561C12.1774 12.9689 11.4022 13.5321 10.9103 13.0633C9.98265 12.1792 8.44417 12.6791 8.21334 13.9395C8.09093 14.608 7.13275 14.608 7.01033 13.9395C6.77951 12.6791 5.24103 12.1792 4.3134 13.0633C3.82144 13.5321 3.04626 12.9689 3.34014 12.3561C3.89429 11.2007 2.94346 9.89201 1.67334 10.062C0.999754 10.1521 0.703661 9.24086 1.30159 8.91786C2.42905 8.30882 2.42905 6.69118 1.30159 6.08214C0.70366 5.75914 0.999755 4.84786 1.67334 4.93801C2.94346 5.10799 3.89429 3.79928 3.34014 2.64385C3.04626 2.03109 3.82144 1.46789 4.3134 1.93674C5.24103 2.82082 6.77951 2.32094 7.01033 1.06045Z" stroke="black"/>
</svg>
